# Blender 4.2.1 LTS
# www.blender.org
mtllib emblem.mtl
o Cube
v -1.184625 -0.453214 1.184625
v -1.184625 0.453214 1.184625
v -1.184625 -0.453214 -1.184625
v -1.184625 0.453214 -1.184625
v 1.184625 -0.453214 1.184625
v 1.184625 0.453214 1.184625
v 1.184625 -0.453214 -1.184625
v 1.184625 0.453214 -1.184625
v -3.329008 -0.453214 -3.329008
v -3.329008 -0.453214 3.329008
v -3.329008 0.453214 3.329008
v -3.329008 0.453214 -3.329008
v 3.329008 -0.453214 -3.329008
v 3.329008 0.453214 -3.329008
v 3.329008 -0.453214 3.329008
v 3.329008 0.453214 3.329008
v -2.289614 -0.453214 -2.616740
v -2.848052 -0.453214 2.848052
v -2.848052 0.453214 2.848052
v -2.289614 0.453214 -2.616740
v 2.289614 -0.453214 -2.616740
v 2.289614 0.453214 -2.616740
v 2.848052 -0.453214 2.848052
v 2.848052 0.453214 2.848052
v -1.794238 -0.453214 -2.121364
v -1.890051 -0.453214 1.890051
v -1.890051 0.453214 1.890051
v -1.794238 0.453214 -2.121364
v 1.794238 -0.453214 -2.121364
v 1.794238 0.453214 -2.121364
v 1.890051 -0.453214 1.890051
v 1.890051 0.453214 1.890051
v 2.848052 -0.453214 -2.848052
v -2.848052 -0.453214 -2.848052
v -2.848052 0.453214 -2.848052
v 2.848052 0.453214 -2.848052
v 1.890051 -0.453214 -1.890051
v -1.890051 -0.453214 -1.890051
v -1.890051 0.453214 -1.890051
v 1.890051 0.453214 -1.890051
vn -1.0000 -0.0000 -0.0000
vn -0.0000 -0.0000 -1.0000
vn 1.0000 -0.0000 -0.0000
vn -0.0000 -0.0000 1.0000
vn 0.7071 -0.0000 -0.7071
vn -0.0000 -1.0000 -0.0000
vn -0.0000 1.0000 -0.0000
vn -0.7071 -0.0000 0.7071
vn -0.7071 -0.0000 -0.7071
vn 0.7071 -0.0000 0.7071
s 0
f 10//1 11//1 12//1 9//1
f 9//2 12//2 14//2 13//2
f 13//3 14//3 16//3 15//3
f 15//4 16//4 11//4 10//4
f 40//3 32//3 31//3 37//3
f 32//5 24//5 23//5 31//5
f 34//6 18//6 10//6 9//6
f 19//7 35//7 12//7 11//7
f 33//6 34//6 9//6 13//6
f 35//7 36//7 14//7 12//7
f 23//6 33//6 13//6 15//6
f 36//7 24//7 16//7 14//7
f 18//6 23//6 15//6 10//6
f 24//7 19//7 11//7 16//7
f 27//1 39//1 38//1 26//1
f 39//8 35//8 34//8 38//8
f 20//5 28//5 25//5 17//5
f 30//9 22//9 21//9 29//9
f 6//1 8//1 7//1 5//1
f 4//3 2//3 1//3 3//3
f 26//6 31//6 23//6 18//6
f 32//7 27//7 19//7 24//7
f 3//6 1//6 26//6 38//6
f 2//7 4//7 39//7 27//7
f 7//6 3//6 38//6 37//6
f 4//7 8//7 40//7 39//7
f 5//6 7//6 37//6 31//6
f 8//7 6//7 32//7 40//7
f 1//6 5//6 31//6 26//6
f 6//7 2//7 27//7 32//7
f 8//4 4//4 3//4 7//4
f 35//3 19//3 18//3 34//3
f 2//2 6//2 5//2 1//2
f 24//1 36//1 33//1 23//1
f 36//10 40//10 37//10 33//10
f 19//9 27//9 26//9 18//9
f 21//6 17//6 34//6 33//6
f 20//7 22//7 36//7 35//7
f 25//6 29//6 37//6 38//6
f 30//7 28//7 39//7 40//7
f 17//6 25//6 38//6 34//6
f 28//7 20//7 35//7 39//7
f 29//6 21//6 33//6 37//6
f 22//7 30//7 40//7 36//7
f 28//2 30//2 29//2 25//2
f 22//4 20//4 17//4 21//4
