# Blender 4.2.1 LTS
# www.blender.org
o Cylinder
v -0.000000 -1.878976 -1.054118
v -0.000000 1.878976 -1.054118
v 0.403394 -1.878976 -0.973878
v 0.403394 1.878976 -0.973878
v 0.745374 -1.878976 -0.745374
v 0.745374 1.878976 -0.745374
v 0.973878 -1.878976 -0.403394
v 0.973878 1.878976 -0.403394
v 1.054118 -1.878976 -0.000000
v 1.054118 1.878976 -0.000000
v 0.973878 -1.878976 0.403394
v 0.973878 1.878976 0.403394
v 0.745374 -1.878976 0.745374
v 0.745374 1.878976 0.745374
v 0.403394 -1.878976 0.973878
v 0.403394 1.878976 0.973878
v -0.000000 -1.878976 1.054118
v -0.000000 1.878976 1.054118
v -0.403394 -1.878976 0.973878
v -0.403394 1.878976 0.973878
v -0.745374 -1.878976 0.745374
v -0.745374 1.878976 0.745374
v -0.973878 -1.878976 0.403394
v -0.973878 1.878976 0.403394
v -1.054118 -1.878976 -0.000000
v -1.054118 1.878976 -0.000000
v -0.973878 -1.878976 -0.403394
v -0.973878 1.878976 -0.403394
v -0.745374 -1.878976 -0.745374
v -0.745374 1.878976 -0.745374
v -0.403394 -1.878976 -0.973878
v -0.403394 1.878976 -0.973878
v -0.000000 -1.878976 -2.394946
v 0.916506 -1.878976 -2.212641
v 0.916506 1.878976 -2.212641
v -0.000000 1.878976 -2.394946
v 1.693482 -1.878976 -1.693482
v 1.693482 1.878976 -1.693482
v 2.212641 -1.878976 -0.916506
v 2.212641 1.878976 -0.916506
v 2.394946 -1.878976 -0.000000
v 2.394946 1.878976 -0.000000
v 2.212641 -1.878976 0.916506
v 2.212641 1.878976 0.916506
v 1.693482 -1.878976 1.693482
v 1.693482 1.878976 1.693482
v 0.916506 -1.878976 2.212641
v 0.916506 1.878976 2.212641
v -0.000000 -1.878976 2.394946
v -0.000000 1.878976 2.394946
v -0.916506 -1.878976 2.212641
v -0.916506 1.878976 2.212641
v -1.693482 -1.878976 1.693482
v -1.693482 1.878976 1.693482
v -2.212641 -1.878976 0.916506
v -2.212641 1.878976 0.916506
v -2.394946 -1.878976 -0.000000
v -2.394946 1.878976 -0.000000
v -2.212641 -1.878976 -0.916506
v -2.212641 1.878976 -0.916506
v -1.693482 -1.878976 -1.693482
v -1.693482 1.878976 -1.693482
v -0.916506 -1.878976 -2.212641
v -0.916506 1.878976 -2.212641
vn 0.1951 -0.0000 -0.9808
vn 0.5556 -0.0000 -0.8315
vn 0.8315 -0.0000 -0.5556
vn 0.9808 -0.0000 -0.1951
vn 0.9808 -0.0000 0.1951
vn 0.8315 -0.0000 0.5556
vn 0.5556 -0.0000 0.8315
vn 0.1951 -0.0000 0.9808
vn -0.1951 -0.0000 0.9808
vn -0.5556 -0.0000 0.8315
vn -0.8315 -0.0000 0.5556
vn -0.9808 -0.0000 0.1951
vn -0.9808 -0.0000 -0.1951
vn -0.8315 -0.0000 -0.5556
vn -0.5556 -0.0000 -0.8315
vn -0.1951 -0.0000 -0.9808
vn -0.0000 -1.0000 -0.0000
vn -0.0000 1.0000 -0.0000
vt 1.000000 0.500000
vt 1.000000 1.000000
vt 0.937500 1.000000
vt 0.937500 0.500000
vt 0.875000 1.000000
vt 0.875000 0.500000
vt 0.812500 1.000000
vt 0.812500 0.500000
vt 0.750000 1.000000
vt 0.750000 0.500000
vt 0.687500 1.000000
vt 0.687500 0.500000
vt 0.625000 1.000000
vt 0.625000 0.500000
vt 0.562500 1.000000
vt 0.562500 0.500000
vt 0.500000 1.000000
vt 0.500000 0.500000
vt 0.437500 1.000000
vt 0.437500 0.500000
vt 0.375000 1.000000
vt 0.375000 0.500000
vt 0.312500 1.000000
vt 0.312500 0.500000
vt 0.250000 1.000000
vt 0.250000 0.500000
vt 0.187500 1.000000
vt 0.187500 0.500000
vt 0.125000 1.000000
vt 0.125000 0.500000
vt 0.347593 0.290424
vt 0.324695 0.324695
vt 0.062500 1.000000
vt 0.062500 0.500000
vt 0.000000 1.000000
vt 0.000000 0.500000
vt 0.175305 0.324695
vt 0.152407 0.290424
vt 0.790424 0.347593
vt 0.750000 0.355634
vt 0.750000 0.490000
vt 0.841844 0.471731
vt 0.250000 0.355634
vt 0.290424 0.347593
vt 0.341844 0.471731
vt 0.250000 0.490000
vt 0.824695 0.324695
vt 0.919706 0.419706
vt 0.419706 0.419706
vt 0.847593 0.290424
vt 0.971731 0.341844
vt 0.471731 0.341844
vt 0.855634 0.250000
vt 0.990000 0.250000
vt 0.355634 0.250000
vt 0.490000 0.250000
vt 0.847593 0.209576
vt 0.971731 0.158156
vt 0.347593 0.209576
vt 0.471731 0.158156
vt 0.824695 0.175305
vt 0.919706 0.080294
vt 0.324695 0.175305
vt 0.419706 0.080294
vt 0.790424 0.152407
vt 0.841844 0.028269
vt 0.290424 0.152407
vt 0.341844 0.028269
vt 0.750000 0.144366
vt 0.750000 0.010000
vt 0.250000 0.144366
vt 0.250000 0.010000
vt 0.709576 0.152407
vt 0.658156 0.028269
vt 0.209575 0.152407
vt 0.158156 0.028269
vt 0.675305 0.175305
vt 0.580294 0.080294
vt 0.175305 0.175305
vt 0.080294 0.080294
vt 0.652407 0.209576
vt 0.528269 0.158156
vt 0.152407 0.209576
vt 0.028269 0.158156
vt 0.644366 0.250000
vt 0.510000 0.250000
vt 0.144366 0.250000
vt 0.010000 0.250000
vt 0.652407 0.290424
vt 0.528269 0.341844
vt 0.028269 0.341844
vt 0.675305 0.324695
vt 0.580294 0.419706
vt 0.080294 0.419706
vt 0.709576 0.347593
vt 0.658156 0.471731
vt 0.209576 0.347593
vt 0.158156 0.471731
s 0
f 33/1/1 36/2/1 35/3/1 34/4/1
f 34/4/2 35/3/2 38/5/2 37/6/2
f 37/6/3 38/5/3 40/7/3 39/8/3
f 39/8/4 40/7/4 42/9/4 41/10/4
f 41/10/5 42/9/5 44/11/5 43/12/5
f 43/12/6 44/11/6 46/13/6 45/14/6
f 45/14/7 46/13/7 48/15/7 47/16/7
f 47/16/8 48/15/8 50/17/8 49/18/8
f 49/18/9 50/17/9 52/19/9 51/20/9
f 51/20/10 52/19/10 54/21/10 53/22/10
f 53/22/11 54/21/11 56/23/11 55/24/11
f 55/24/12 56/23/12 58/25/12 57/26/12
f 57/26/13 58/25/13 60/27/13 59/28/13
f 59/28/14 60/27/14 62/29/14 61/30/14
f 8/31/11 6/32/11 5/32/11 7/31/11
f 61/30/15 62/29/15 64/33/15 63/34/15
f 63/34/16 64/33/16 36/35/16 33/36/16
f 30/37/6 28/38/6 27/38/6 29/37/6
f 3/39/17 1/40/17 33/41/17 34/42/17
f 2/43/18 4/44/18 35/45/18 36/46/18
f 5/47/17 3/39/17 34/42/17 37/48/17
f 4/44/18 6/32/18 38/49/18 35/45/18
f 7/50/17 5/47/17 37/48/17 39/51/17
f 6/32/18 8/31/18 40/52/18 38/49/18
f 9/53/17 7/50/17 39/51/17 41/54/17
f 8/31/18 10/55/18 42/56/18 40/52/18
f 11/57/17 9/53/17 41/54/17 43/58/17
f 10/55/18 12/59/18 44/60/18 42/56/18
f 13/61/17 11/57/17 43/58/17 45/62/17
f 12/59/18 14/63/18 46/64/18 44/60/18
f 15/65/17 13/61/17 45/62/17 47/66/17
f 14/63/18 16/67/18 48/68/18 46/64/18
f 17/69/17 15/65/17 47/66/17 49/70/17
f 16/67/18 18/71/18 50/72/18 48/68/18
f 19/73/17 17/69/17 49/70/17 51/74/17
f 18/71/18 20/75/18 52/76/18 50/72/18
f 21/77/17 19/73/17 51/74/17 53/78/17
f 20/75/18 22/79/18 54/80/18 52/76/18
f 23/81/17 21/77/17 53/78/17 55/82/17
f 22/79/18 24/83/18 56/84/18 54/80/18
f 25/85/17 23/81/17 55/82/17 57/86/17
f 24/83/18 26/87/18 58/88/18 56/84/18
f 27/89/17 25/85/17 57/86/17 59/90/17
f 26/87/18 28/38/18 60/91/18 58/88/18
f 29/92/17 27/89/17 59/90/17 61/93/17
f 28/38/18 30/37/18 62/94/18 60/91/18
f 31/95/17 29/92/17 61/93/17 63/96/17
f 30/37/18 32/97/18 64/98/18 62/94/18
f 1/40/17 31/95/17 63/96/17 33/41/17
f 32/97/18 2/43/18 36/46/18 64/98/18
f 16/67/15 14/63/15 13/63/15 15/67/15
f 24/83/3 22/79/3 21/79/3 23/83/3
f 32/97/7 30/37/7 29/37/7 31/97/7
f 10/55/12 8/31/12 7/31/12 9/55/12
f 18/71/16 16/67/16 15/67/16 17/71/16
f 26/87/4 24/83/4 23/83/4 25/87/4
f 4/44/9 2/43/9 1/43/9 3/44/9
f 2/43/8 32/97/8 31/97/8 1/43/8
f 12/59/13 10/55/13 9/55/13 11/59/13
f 20/75/1 18/71/1 17/71/1 19/75/1
f 28/38/5 26/87/5 25/87/5 27/38/5
f 6/32/10 4/44/10 3/44/10 5/32/10
f 14/63/14 12/59/14 11/59/14 13/63/14
f 22/79/2 20/75/2 19/75/2 21/79/2
