# Blender 4.5.1 LTS
# www.blender.org
mtllib TurntableBase.mtl
o Cylinder
v 0.000000 -0.070053 -0.233085
v 0.000000 0.149680 -0.233085
v 0.089281 -0.070053 -0.215326
v 0.089281 0.149680 -0.215326
v 0.164970 -0.070053 -0.164753
v 0.164970 0.149680 -0.164753
v 0.215544 -0.070053 -0.089063
v 0.215544 0.149680 -0.089063
v 0.233303 -0.070053 0.000218
v 0.233303 0.149680 0.000218
v 0.215544 -0.070053 0.089499
v 0.215544 0.149680 0.089499
v 0.164970 -0.070053 0.165188
v 0.164970 0.149680 0.165188
v 0.089281 -0.070053 0.215762
v 0.089281 0.149680 0.215762
v 0.000000 -0.070053 0.233521
v 0.000000 0.149680 0.233521
v -0.089281 -0.070053 0.215762
v -0.089281 0.149680 0.215762
v -0.164970 -0.070053 0.165188
v -0.164970 0.149680 0.165188
v -0.215544 -0.070053 0.089499
v -0.215544 0.149680 0.089499
v -0.233303 -0.070053 0.000218
v -0.233303 0.149680 0.000218
v -0.215544 -0.070053 -0.089063
v -0.215544 0.149680 -0.089063
v -0.164970 -0.070053 -0.164753
v -0.164970 0.149680 -0.164753
v -0.089281 -0.070053 -0.215326
v -0.089281 0.149680 -0.215326
vn 0.1951 -0.0000 -0.9808
vn 0.5556 -0.0000 -0.8315
vn 0.8315 -0.0000 -0.5556
vn 0.9808 -0.0000 -0.1951
vn 0.9808 -0.0000 0.1951
vn 0.8315 -0.0000 0.5556
vn 0.5556 -0.0000 0.8315
vn 0.1951 -0.0000 0.9808
vn -0.1951 -0.0000 0.9808
vn -0.5556 -0.0000 0.8315
vn -0.8315 -0.0000 0.5556
vn -0.9808 -0.0000 0.1951
vn -0.9808 -0.0000 -0.1951
vn -0.8315 -0.0000 -0.5556
vn -0.0000 1.0000 -0.0000
vn -0.5556 -0.0000 -0.8315
vn -0.1951 -0.0000 -0.9808
vn -0.0000 -1.0000 -0.0000
s 0
usemtl Cover
f 1//1 2//1 4//1 3//1
f 3//2 4//2 6//2 5//2
f 5//3 6//3 8//3 7//3
f 7//4 8//4 10//4 9//4
f 9//5 10//5 12//5 11//5
f 11//6 12//6 14//6 13//6
f 13//7 14//7 16//7 15//7
f 15//8 16//8 18//8 17//8
f 17//9 18//9 20//9 19//9
f 19//10 20//10 22//10 21//10
f 21//11 22//11 24//11 23//11
f 23//12 24//12 26//12 25//12
f 25//13 26//13 28//13 27//13
f 27//14 28//14 30//14 29//14
f 4//15 2//15 32//15 30//15 28//15 26//15 24//15 22//15 20//15 18//15 16//15 14//15 12//15 10//15 8//15 6//15
f 29//16 30//16 32//16 31//16
f 31//17 32//17 2//17 1//17
f 1//18 3//18 5//18 7//18 9//18 11//18 13//18 15//18 17//18 19//18 21//18 23//18 25//18 27//18 29//18 31//18
o Cube
v -0.282456 0.000344 0.279809
v -0.282456 0.109623 0.279809
v -0.385304 0.000344 0.382657
v -0.385304 0.109623 0.382657
v -0.385304 0.000344 -0.002482
v -0.385304 0.109623 -0.002482
v -0.282456 0.000344 -0.002482
v -0.282456 0.109623 -0.002482
v -0.000165 0.000344 0.382657
v -0.000165 0.109623 0.382657
v -0.000165 0.000344 0.279809
v -0.000165 0.109623 0.279809
v -0.385304 0.000344 0.255629
v -0.282456 0.000344 0.223351
v -0.385304 0.109623 0.255629
v -0.282456 0.109623 0.223351
v -0.258276 0.109623 0.382657
v -0.225998 0.109623 0.279809
v -0.258276 0.000344 0.382657
v -0.225998 0.000344 0.279809
v -0.473445 0.000344 0.393771
v -0.473445 0.000344 0.470799
v -0.473445 0.046602 0.470799
v -0.396418 0.046602 0.470799
v -0.473445 0.046602 0.393771
v -0.396418 0.000344 0.470799
v -0.082456 0.000344 0.023351
v -0.082456 0.109623 0.023351
v -0.025998 0.109623 0.079809
v -0.025998 0.000344 0.079809
v 0.282126 0.000344 0.279809
v 0.282126 0.109623 0.279809
v 0.384973 0.000344 0.382657
v 0.384973 0.109623 0.382657
v 0.384973 0.000344 -0.002482
v 0.384973 0.109623 -0.002482
v 0.282126 0.000344 -0.002482
v 0.282126 0.109623 -0.002482
v 0.384973 0.000344 0.255629
v 0.282126 0.000344 0.223351
v 0.384973 0.109623 0.255629
v 0.282126 0.109623 0.223351
v 0.257946 0.109623 0.382657
v 0.225668 0.109623 0.279809
v 0.257946 0.000344 0.382657
v 0.225668 0.000344 0.279809
v 0.473115 0.000344 0.393771
v 0.473115 0.000344 0.470799
v 0.473115 0.046602 0.470799
v 0.396088 0.046602 0.470799
v 0.473115 0.046602 0.393771
v 0.396088 0.000344 0.470799
v 0.082126 0.000344 0.023351
v 0.082126 0.109623 0.023351
v 0.025668 0.109623 0.079809
v 0.025668 0.000344 0.079809
v -0.282456 0.000344 -0.284773
v -0.282456 0.109623 -0.284773
v -0.385304 0.000344 -0.387620
v -0.385304 0.109623 -0.387620
v -0.000165 0.000344 -0.387620
v -0.000165 0.109623 -0.387620
v -0.000165 0.000344 -0.284773
v -0.000165 0.109623 -0.284773
v -0.385304 0.000344 -0.260593
v -0.282456 0.000344 -0.228315
v -0.385304 0.109623 -0.260593
v -0.282456 0.109623 -0.228315
v -0.258276 0.109623 -0.387620
v -0.225998 0.109623 -0.284773
v -0.258276 0.000344 -0.387620
v -0.225998 0.000344 -0.284773
v -0.473445 0.000344 -0.398734
v -0.473445 0.000344 -0.475762
v -0.473445 0.046602 -0.475762
v -0.396418 0.046602 -0.475762
v -0.473445 0.046602 -0.398734
v -0.396418 0.000344 -0.475762
v -0.082456 0.000344 -0.028315
v -0.082456 0.109623 -0.028315
v -0.025998 0.109623 -0.084773
v -0.025998 0.000344 -0.084773
v 0.282126 0.000344 -0.284773
v 0.282126 0.109623 -0.284773
v 0.384973 0.000344 -0.387620
v 0.384973 0.109623 -0.387620
v 0.384973 0.000344 -0.260593
v 0.282126 0.000344 -0.228315
v 0.384973 0.109623 -0.260593
v 0.282126 0.109623 -0.228315
v 0.257946 0.109623 -0.387620
v 0.225668 0.109623 -0.284773
v 0.257946 0.000344 -0.387620
v 0.225668 0.000344 -0.284773
v 0.473115 0.000344 -0.398734
v 0.473115 0.000344 -0.475762
v 0.473115 0.046602 -0.475762
v 0.396088 0.046602 -0.475762
v 0.473115 0.046602 -0.398734
v 0.396088 0.000344 -0.475762
v 0.082126 0.000344 -0.028315
v 0.082126 0.109623 -0.028315
v 0.025668 0.109623 -0.084773
v 0.025668 0.000344 -0.084773
vn 0.5379 -0.0000 0.8430
vn -0.0000 -1.0000 -0.0000
vn -0.0000 1.0000 -0.0000
vn -1.0000 -0.0000 -0.0000
vn -0.0000 -0.0000 -1.0000
vn 1.0000 -0.0000 -0.0000
vn -0.0000 -0.0000 1.0000
vn -0.0000 0.8135 0.5816
vn -0.8430 -0.0000 -0.5379
vn -0.5816 0.8135 -0.0000
vn -0.7071 -0.0000 -0.7071
vn 0.7071 -0.0000 0.7071
vn 0.7071 -0.0000 -0.7071
vn -0.5379 -0.0000 0.8430
vn 0.8430 -0.0000 -0.5379
vn 0.5816 0.8135 -0.0000
vn -0.7071 -0.0000 0.7071
vn 0.5379 -0.0000 -0.8430
vn -0.0000 0.8135 -0.5816
vn -0.8430 -0.0000 0.5379
vn -0.5379 -0.0000 -0.8430
vn 0.8430 -0.0000 0.5379
s 0
usemtl Table
f 51//19 49//19 56//19 58//19
f 46//20 33//20 35//20 45//20
f 50//21 34//21 36//21 49//21
f 48//21 40//21 38//21 47//21
f 45//22 47//22 38//22 37//22
f 52//23 50//23 44//23 43//23
f 52//20 43//20 41//20 51//20
f 35//20 51//20 58//20 54//20
f 34//21 48//21 47//21 36//21
f 39//24 40//24 48//24 46//24
f 39//20 46//20 45//20 37//20
f 33//20 52//20 51//20 35//20
f 44//21 50//21 49//21 42//21
f 41//25 42//25 49//25 51//25
f 58//25 56//25 55//25 54//25
f 54//22 55//22 57//22 53//22
f 49//26 36//26 55//26 56//26
f 47//27 45//27 53//27 57//27
f 45//20 35//20 54//20 53//20
f 36//28 47//28 57//28 55//28
f 33//20 46//20 52//20
f 34//21 50//21 48//21
f 46//29 48//29 60//29 59//29
f 52//20 46//20 59//20 62//20
f 50//30 52//30 62//30 61//30
f 48//21 50//21 61//21 60//21
f 59//31 60//31 61//31 62//31
f 77//32 84//32 82//32 75//32
f 72//20 71//20 65//20 63//20
f 76//21 75//21 66//21 64//21
f 74//21 73//21 68//21 70//21
f 71//24 67//24 68//24 73//24
f 78//23 43//23 44//23 76//23
f 78//20 77//20 41//20 43//20
f 65//20 80//20 84//20 77//20
f 64//21 66//21 73//21 74//21
f 69//22 72//22 74//22 70//22
f 69//20 67//20 71//20 72//20
f 63//20 65//20 77//20 78//20
f 44//21 42//21 75//21 76//21
f 41//25 77//25 75//25 42//25
f 84//25 80//25 81//25 82//25
f 80//24 79//24 83//24 81//24
f 75//26 82//26 81//26 66//26
f 73//33 83//33 79//33 71//33
f 71//20 79//20 80//20 65//20
f 66//34 81//34 83//34 73//34
f 63//20 78//20 72//20
f 64//21 74//21 76//21
f 72//31 85//31 86//31 74//31
f 78//20 88//20 85//20 72//20
f 76//35 87//35 88//35 78//35
f 74//21 86//21 87//21 76//21
f 85//29 88//29 87//29 86//29
f 103//36 110//36 108//36 101//36
f 98//20 97//20 91//20 89//20
f 102//21 101//21 92//21 90//21
f 100//21 99//21 38//21 40//21
f 97//22 37//22 38//22 99//22
f 104//25 95//25 96//25 102//25
f 104//20 103//20 93//20 95//20
f 91//20 106//20 110//20 103//20
f 90//21 92//21 99//21 100//21
f 39//24 98//24 100//24 40//24
f 39//20 37//20 97//20 98//20
f 89//20 91//20 103//20 104//20
f 96//21 94//21 101//21 102//21
f 93//23 103//23 101//23 94//23
f 110//23 106//23 107//23 108//23
f 106//22 105//22 109//22 107//22
f 101//37 108//37 107//37 92//37
f 99//38 109//38 105//38 97//38
f 97//20 105//20 106//20 91//20
f 92//28 107//28 109//28 99//28
f 89//20 104//20 98//20
f 90//21 100//21 102//21
f 98//35 111//35 112//35 100//35
f 104//20 114//20 111//20 98//20
f 102//31 113//31 114//31 104//31
f 100//21 112//21 113//21 102//21
f 111//30 114//30 113//30 112//30
f 125//39 123//39 130//39 132//39
f 120//20 115//20 117//20 119//20
f 124//21 116//21 118//21 123//21
f 122//21 70//21 68//21 121//21
f 119//24 121//24 68//24 67//24
f 126//25 124//25 96//25 95//25
f 126//20 95//20 93//20 125//20
f 117//20 125//20 132//20 128//20
f 116//21 122//21 121//21 118//21
f 69//22 70//22 122//22 120//22
f 69//20 120//20 119//20 67//20
f 115//20 126//20 125//20 117//20
f 96//21 124//21 123//21 94//21
f 93//23 94//23 123//23 125//23
f 132//23 130//23 129//23 128//23
f 128//24 129//24 131//24 127//24
f 123//37 118//37 129//37 130//37
f 121//40 119//40 127//40 131//40
f 119//20 117//20 128//20 127//20
f 118//34 121//34 131//34 129//34
f 115//20 120//20 126//20
f 116//21 124//21 122//21
f 120//30 122//30 134//30 133//30
f 126//20 120//20 133//20 136//20
f 124//29 126//29 136//29 135//29
f 122//21 124//21 135//21 134//21
f 133//35 134//35 135//35 136//35
